<svg width="193" height="133" viewBox="0 0 193 133" fill="none" xmlns="http://www.w3.org/2000/svg">
<rect x="1.72966" y="1.72966" width="189.541" height="129.541" rx="2.27034" fill="white" stroke="#F3F3F3" stroke-width="3.45932"/>
<path fill-rule="evenodd" clip-rule="evenodd" d="M58.4892 49.6307C57.0854 51.309 54.8393 52.6327 52.5932 52.4436C52.3124 50.1744 53.4121 47.7634 54.6989 46.2742C56.1027 44.5487 58.5594 43.3195 60.5482 43.225C60.7821 45.5887 59.8697 47.9052 58.4892 49.6307ZM60.525 52.8926C58.5462 52.7776 56.7407 53.4939 55.2823 54.0724C54.3438 54.4447 53.549 54.76 52.9444 54.76C52.2658 54.76 51.4383 54.4279 50.5091 54.0549L50.5091 54.0549C49.2916 53.5663 47.8997 53.0077 46.44 53.0345C43.0942 53.0817 39.9824 54.9964 38.2744 58.0456C34.7648 64.1441 37.3619 73.1736 40.7545 78.1374C42.4157 80.5957 44.4044 83.2904 47.0249 83.1958C48.1778 83.1519 49.007 82.7964 49.8653 82.4285C50.8534 82.0049 51.8798 81.5648 53.4825 81.5648C55.0296 81.5648 56.0112 81.9934 56.9534 82.4048C57.8493 82.796 58.7097 83.1716 59.9869 83.1486C62.701 83.1013 64.4089 80.6903 66.0701 78.232C67.8628 75.5936 68.6506 73.0186 68.7702 72.6278L68.7781 72.602L68.7842 72.5826C68.7813 72.5797 68.7592 72.5695 68.7201 72.5514C68.1208 72.2743 63.5404 70.1558 63.4965 64.475C63.4524 59.7068 67.1296 57.2909 67.7084 56.9106C67.7436 56.8875 67.7674 56.8719 67.7781 56.8637C65.4384 53.3654 61.7885 52.9872 60.525 52.8926ZM79.3127 82.8885V46.0378H93C100.066 46.0378 105.003 50.9543 105.003 58.1401C105.003 65.3259 99.9723 70.2898 92.8128 70.2898H84.9748V82.8885H79.3127ZM84.9751 50.8598H91.5029C96.4162 50.8598 99.2239 53.5072 99.2239 58.1638C99.2239 62.8204 96.4162 65.4914 91.4795 65.4914H84.9751V50.8598ZM123.697 78.4685C122.2 81.3522 118.901 83.1723 115.344 83.1723C110.08 83.1723 106.407 80.0049 106.407 75.2301C106.407 70.5026 109.963 67.7843 116.538 67.3825L123.604 66.957V64.9242C123.604 61.9222 121.662 60.2913 118.199 60.2913C115.344 60.2913 113.262 61.7804 112.841 64.0496H107.74C107.904 59.2749 112.35 55.8001 118.363 55.8001C124.844 55.8001 129.055 59.2276 129.055 64.546V82.8887H123.814V78.4685H123.697ZM116.865 78.7994C113.847 78.7994 111.928 77.3339 111.928 75.0883C111.928 72.7718 113.777 71.4245 117.31 71.2118L123.604 70.8099V72.89C123.604 76.3411 120.702 78.7994 116.865 78.7994ZM146.439 84.3306C144.17 90.7836 141.573 92.911 136.051 92.911C135.63 92.911 134.226 92.8637 133.898 92.7691V88.3489C134.249 88.3962 135.115 88.4435 135.559 88.4435C138.063 88.4435 139.467 87.3798 140.332 84.6142L140.847 82.9832L131.254 56.1548H137.174L143.842 77.9248H143.959L150.627 56.1548H156.383L146.439 84.3306Z" fill="black"/>
</svg>
