<svg width="193" height="133" viewBox="0 0 193 133" fill="none" xmlns="http://www.w3.org/2000/svg">
<rect x="1.72966" y="1.72966" width="189.541" height="129.541" rx="2.27034" fill="white" stroke="#F3F3F3" stroke-width="3.45932"/>
<path fill-rule="evenodd" clip-rule="evenodd" d="M65.4383 53.7802C66.7894 53.7802 67.9552 54.0203 68.9358 54.4932C69.9205 54.9703 70.7345 55.6129 71.3862 56.4211C72.0295 57.2334 72.5083 58.1834 72.8175 59.271C73.1245 60.3627 73.2786 61.5352 73.2786 62.7914C73.2786 64.7193 72.9236 66.5427 72.2054 68.2605C71.4882 69.9803 70.5139 71.4726 69.2751 72.7454C68.0375 74.0172 66.576 75.0189 64.8907 75.7588C63.2075 76.5008 61.3786 76.8702 59.4143 76.8702C59.1604 76.8702 58.7138 76.864 58.083 76.8495C57.4522 76.8371 56.7266 76.7729 55.9147 76.6632C55.0976 76.5504 54.2336 76.3828 53.3207 76.1582C52.4088 75.9378 51.5428 75.6284 50.7267 75.2362L58.0195 44.7731L64.5514 43.7663L61.9407 54.576C62.4997 54.3256 63.0628 54.131 63.6249 53.9903C64.1902 53.8537 64.7929 53.7802 65.4383 53.7802ZM59.9598 71.7199C60.9435 71.7199 61.8699 71.4799 62.7412 71.0069C63.6145 70.5351 64.3682 69.8966 64.999 69.1008C65.6298 68.3029 66.1305 67.4027 66.4948 66.3968C66.8591 65.392 67.0434 64.3437 67.0434 63.252C67.0434 61.9119 66.8186 60.8657 66.3689 60.1103C65.9192 59.3569 65.0885 58.9792 63.881 58.9792C63.4855 58.9792 62.9754 59.0537 62.3436 59.1872C61.7096 59.331 61.1423 59.626 60.6333 60.0699L57.853 71.5513C58.0205 71.5792 58.1694 71.6082 58.2954 71.634C58.4192 71.662 58.5556 71.6827 58.692 71.6972C58.8366 71.7137 59.0011 71.721 59.1999 71.721C59.3987 71.721 59.6507 71.7199 59.9598 71.7199Z" fill="#4D4D4D"/>
<path fill-rule="evenodd" clip-rule="evenodd" d="M80.0548 76.2853H73.8154L79.0847 54.2446H85.3667L80.0548 76.2853ZM83.0903 51.5614C82.219 51.5614 81.43 51.3027 80.7294 50.7874C80.0226 50.2741 79.6729 49.4835 79.6729 48.4187C79.6729 47.8329 79.7926 47.2824 80.0299 46.765C80.2704 46.2476 80.5858 45.8006 80.9803 45.4228C81.3748 45.0472 81.8307 44.7471 82.3491 44.5205C82.8706 44.298 83.4254 44.1873 84.0167 44.1873C84.8869 44.1873 85.6728 44.4449 86.3755 44.9613C87.076 45.4798 87.4289 46.2704 87.4289 47.329C87.4289 47.9168 87.3102 48.4694 87.0698 48.9868C86.8314 49.5042 86.517 49.9492 86.1225 50.3289C85.7322 50.7046 85.271 51.0036 84.7537 51.2282C84.2322 51.4538 83.6805 51.5614 83.0903 51.5614Z" fill="#4D4D4D"/>
<path fill-rule="evenodd" clip-rule="evenodd" d="M90.8327 48.7561L97.3677 47.7492L95.7626 54.2448H102.761L101.497 59.3558H94.5406L92.6877 67.0662C92.517 67.7089 92.4202 68.3091 92.3931 68.8658C92.3629 69.4267 92.4337 69.9079 92.6023 70.3125C92.7699 70.7181 93.0718 71.0306 93.509 71.2531C93.9441 71.4777 94.5676 71.5905 95.3837 71.5905C96.0562 71.5905 96.7119 71.5274 97.3459 71.4001C97.9756 71.2769 98.6148 71.1031 99.2612 70.8765L99.7265 75.6563C98.8833 75.9636 97.9704 76.2286 96.9868 76.451C96.002 76.6756 94.8351 76.7843 93.4871 76.7843C91.5489 76.7843 90.0458 76.4997 88.9757 75.9295C87.9067 75.3552 87.1509 74.5718 86.6981 73.5794C86.2516 72.5912 86.0528 71.4508 86.109 70.1666C86.1673 68.8793 86.3619 67.5257 86.6981 66.1008L90.8327 48.7561Z" fill="#4D4D4D"/>
<path fill-rule="evenodd" clip-rule="evenodd" d="M102.486 67.4875C102.486 65.5886 102.795 63.7994 103.414 62.122C104.03 60.4445 104.919 58.9782 106.072 57.7188C107.221 56.4656 108.621 55.4732 110.267 54.7458C111.907 54.0204 113.742 53.6551 115.766 53.6551C117.031 53.6551 118.163 53.773 119.158 54.0121C120.157 54.2522 121.062 54.5636 121.879 54.9538L119.727 59.8185C119.165 59.5918 118.581 59.3921 117.979 59.21C117.375 59.0258 116.638 58.9368 115.767 58.9368C113.685 58.9368 112.038 59.6498 110.813 61.0716C109.593 62.4955 108.978 64.411 108.978 66.8149C108.978 68.2398 109.287 69.3905 109.907 70.2722C110.524 71.1528 111.664 71.5906 113.32 71.5906C114.137 71.5906 114.925 71.5057 115.681 71.3401C116.442 71.1725 117.114 70.9624 117.706 70.712L118.171 75.6978C117.382 76.003 116.512 76.2783 115.557 76.5184C114.601 76.7512 113.462 76.8702 112.141 76.8702C110.398 76.8702 108.922 76.6177 107.716 76.1179C106.508 75.6109 105.51 74.9372 104.724 74.0845C103.934 73.2297 103.367 72.2311 103.016 71.0856C102.664 69.9442 102.486 68.7417 102.486 67.4875H102.486Z" fill="#4D4D4D"/>
<path fill-rule="evenodd" clip-rule="evenodd" d="M130.2 76.8722C128.711 76.8722 127.418 76.6477 126.321 76.2017C125.227 75.7546 124.321 75.1286 123.604 74.3162C122.886 73.508 122.348 72.5498 121.981 71.4467C121.612 70.3446 121.436 69.1224 121.436 67.7844C121.436 66.1049 121.708 64.4264 122.256 62.7521C122.801 61.0757 123.61 59.569 124.682 58.2289C125.745 56.8867 127.055 55.7898 128.6 54.934C130.142 54.0854 131.917 53.6581 133.909 53.6581C135.37 53.6581 136.658 53.8837 137.77 54.3297C138.876 54.7767 139.788 55.4069 140.51 56.2151C141.223 57.0274 141.765 57.9816 142.129 59.0867C142.497 60.1868 142.677 61.412 142.677 62.751C142.677 64.4254 142.409 66.1039 141.878 67.7834C141.346 69.4536 140.558 70.9644 139.518 72.3066C138.479 73.6467 137.18 74.7426 135.619 75.5953C134.059 76.4459 132.251 76.8722 130.2 76.8722ZM133.318 58.9388C132.392 58.9388 131.575 59.2058 130.875 59.7336C130.172 60.2665 129.582 60.9371 129.106 61.7453C128.625 62.5566 128.268 63.4445 128.028 64.4058C127.789 65.3713 127.672 66.283 127.672 67.1502C127.672 68.5482 127.898 69.6368 128.344 70.4212C128.797 71.2004 129.609 71.5926 130.79 71.5926C131.719 71.5926 132.532 71.3277 133.236 70.7948C133.935 70.266 134.525 69.5954 135.005 68.7852C135.483 67.978 135.843 67.0881 136.083 66.1246C136.32 65.1623 136.439 64.2454 136.439 63.3803C136.439 61.9854 136.214 60.8947 135.764 60.1113C135.314 59.33 134.498 58.9388 133.318 58.9388Z" fill="#4D4D4D"/>
<path fill-rule="evenodd" clip-rule="evenodd" d="M149.474 76.2853H143.23L148.5 54.2446H154.785L149.474 76.2853ZM152.505 51.5614C151.635 51.5614 150.846 51.3027 150.147 50.7874C149.443 50.2741 149.09 49.4835 149.09 48.4187C149.09 47.8329 149.211 47.2824 149.449 46.765C149.688 46.2476 150.004 45.8006 150.399 45.4228C150.791 45.0472 151.251 44.7471 151.768 44.5205C152.287 44.298 152.842 44.1873 153.432 44.1873C154.304 44.1873 155.092 44.4449 155.794 44.9613C156.496 45.4798 156.85 46.2704 156.85 47.329C156.85 47.9168 156.724 48.4694 156.488 48.9868C156.252 49.5042 155.936 49.9492 155.543 50.3289C155.147 50.7046 154.693 51.0036 154.175 51.2282C153.653 51.4538 153.099 51.5614 152.505 51.5614Z" fill="#4D4D4D"/>
<path fill-rule="evenodd" clip-rule="evenodd" d="M159.278 55.2497C159.751 55.1121 160.28 54.9465 160.856 54.7664C161.433 54.5864 162.078 54.4187 162.798 54.2677C163.511 54.1124 164.315 53.9872 165.199 53.8879C166.084 53.7885 167.091 53.7399 168.212 53.7399C171.501 53.7399 173.771 54.6919 175.023 56.5919C176.273 58.4918 176.491 61.0913 175.678 64.3851L172.809 76.2856H166.529L169.31 64.6355C169.479 63.9081 169.613 63.2044 169.711 62.5173C169.811 61.8374 169.805 61.2372 169.689 60.7177C169.58 60.2044 169.317 59.7853 168.913 59.4594C168.5 59.1375 167.878 58.9782 167.034 58.9782C166.221 58.9782 165.393 59.0651 164.548 59.2327L160.458 76.2856H154.176L159.278 55.2497Z" fill="#4D4D4D"/>
<path fill-rule="evenodd" clip-rule="evenodd" d="M83.896 89.4216L82.6718 91.632H81.3478C82.2805 89.9597 83.1902 88.4199 84.0771 87.0126C84.964 85.6052 85.8405 84.2765 86.7065 83.0264H87.8932C88.0181 83.6473 88.1326 84.2755 88.2367 84.9077C88.3408 85.541 88.4428 86.2054 88.5427 86.9008C88.6427 87.5962 88.7384 88.334 88.83 89.1122C88.9216 89.8904 89.0174 90.7296 89.1173 91.633H87.8932C87.8515 91.2605 87.8141 90.8859 87.7808 90.5092C87.7474 90.1325 87.71 89.7704 87.6683 89.4227H83.896V89.4216ZM87.5559 88.4521C87.4893 87.7825 87.4123 87.1151 87.3248 86.4528C87.2374 85.7905 87.1354 85.1075 87.0188 84.4039C86.7273 84.8261 86.3651 85.3714 85.932 86.0368C85.499 86.7043 85.0077 87.5083 84.4581 88.4521H87.5559Z" fill="#4D4D4D"/>
<path fill-rule="evenodd" clip-rule="evenodd" d="M93.5448 91.8172C93.0036 91.8172 92.5268 91.7385 92.1146 91.5812C91.7024 91.424 91.3589 91.2004 91.0841 90.9107C90.8093 90.622 90.6032 90.2712 90.4657 89.8614C90.3283 89.4516 90.2596 88.99 90.2596 88.4768C90.2596 87.7317 90.3783 87.0197 90.6156 86.3409C90.853 85.6631 91.1902 85.0629 91.6274 84.5413C92.0646 84.0198 92.5913 83.6038 93.2076 83.2923C93.8238 82.9819 94.5098 82.8266 95.2686 82.8266C95.9182 82.8266 96.4366 82.8929 96.8238 83.0253C97.211 83.1578 97.4879 83.282 97.6545 83.3979L97.1548 84.3913C96.9622 84.2671 96.703 84.1491 96.3741 84.0374C96.0452 83.9267 95.6559 83.8697 95.2062 83.8697C94.6316 83.8697 94.1153 84.0043 93.6573 84.2744C93.1993 84.5434 92.812 84.8911 92.4956 85.3175C92.1791 85.7438 91.9376 86.224 91.7711 86.7579C91.6045 87.2919 91.5213 87.8197 91.5213 88.3412C91.5213 89.9555 92.2249 90.7627 93.6323 90.7627C93.9321 90.7627 94.2006 90.741 94.438 90.6996C94.6753 90.6592 94.8856 90.6106 95.0688 90.5568C95.252 90.503 95.4144 90.444 95.5559 90.3767C95.6975 90.3105 95.8224 90.2525 95.9307 90.2029L96.0806 91.246C95.9806 91.3039 95.8495 91.366 95.6871 91.4322C95.5247 91.4985 95.3353 91.5605 95.1187 91.6195C94.9022 91.6775 94.6607 91.7251 94.3942 91.7623C94.1278 91.7996 93.8446 91.8172 93.5448 91.8172Z" fill="#4D4D4D"/>
<path fill-rule="evenodd" clip-rule="evenodd" d="M100.563 91.8172C100.021 91.8172 99.5446 91.7385 99.1324 91.5812C98.7201 91.424 98.3766 91.2004 98.1018 90.9107C97.827 90.622 97.6209 90.2712 97.4835 89.8614C97.3461 89.4516 97.2774 88.99 97.2774 88.4768C97.2774 87.7317 97.3961 87.0197 97.6334 86.3409C97.8707 85.6631 98.208 85.0629 98.6452 84.5413C99.0824 84.0198 99.6091 83.6038 100.225 83.2923C100.842 82.9819 101.528 82.8266 102.286 82.8266C102.936 82.8266 103.454 82.8929 103.842 83.0253C104.229 83.1578 104.506 83.282 104.672 83.3979L104.173 84.3913C103.98 84.2671 103.721 84.1491 103.392 84.0374C103.063 83.9267 102.674 83.8697 102.224 83.8697C101.649 83.8697 101.133 84.0043 100.675 84.2744C100.217 84.5434 99.8298 84.8911 99.5133 85.3175C99.1969 85.7438 98.9554 86.224 98.7888 86.7579C98.6223 87.2919 98.539 87.8197 98.539 88.3412C98.539 89.9555 99.2427 90.7627 100.65 90.7627C100.95 90.7627 101.218 90.741 101.456 90.6996C101.693 90.6592 101.903 90.6106 102.087 90.5568C102.27 90.503 102.432 90.444 102.574 90.3767C102.715 90.3105 102.84 90.2525 102.948 90.2029L103.098 91.246C102.998 91.3039 102.867 91.366 102.705 91.4322C102.542 91.4985 102.353 91.5605 102.137 91.6195C101.92 91.6775 101.678 91.7251 101.412 91.7623C101.146 91.7996 100.862 91.8172 100.563 91.8172Z" fill="#4D4D4D"/>
<path fill-rule="evenodd" clip-rule="evenodd" d="M103.917 91.6309L105.99 83.0253H111.099L110.862 84.0312H106.952L106.327 86.6265H109.8L109.563 87.6075H106.103L105.366 90.6251H109.563L109.325 91.6309H103.917H103.917Z" fill="#4D4D4D"/>
<path fill-rule="evenodd" clip-rule="evenodd" d="M114.715 82.9384C115.723 82.9384 116.483 83.1288 116.995 83.5096C117.507 83.8904 117.763 84.4451 117.763 85.1736C117.763 85.7365 117.657 86.2239 117.444 86.6327C117.232 87.0425 116.93 87.3798 116.539 87.6458C116.147 87.9107 115.677 88.1063 115.127 88.2346C114.578 88.3629 113.966 88.4281 113.291 88.4281H112.429L111.655 91.6319H110.443L112.492 83.1381C112.841 83.0553 113.212 83.0015 113.603 82.9767C113.995 82.9508 114.365 82.9384 114.715 82.9384ZM114.565 83.9584C113.974 83.9584 113.616 83.9749 113.491 84.008L112.666 87.4229H113.453C113.803 87.4229 114.161 87.3929 114.528 87.3298C114.894 87.2677 115.223 87.158 115.514 87.0018C115.806 86.8445 116.045 86.6272 116.233 86.3488C116.42 86.0715 116.514 85.7144 116.514 85.2757C116.514 84.8038 116.339 84.4664 115.989 84.2626C115.639 84.0598 115.165 83.9584 114.565 83.9584Z" fill="#4D4D4D"/>
<path fill-rule="evenodd" clip-rule="evenodd" d="M125.152 83.0253L124.915 84.0312H122.304L120.468 91.6309H119.257L121.093 84.0312H118.482L118.72 83.0253H125.152Z" fill="#4D4D4D"/>
<path fill-rule="evenodd" clip-rule="evenodd" d="M124.028 91.6309L126.102 83.0253H131.211L130.974 84.0312H127.064L126.439 86.6265H129.912L129.674 87.6075H126.214L125.477 90.6251H129.674L129.437 91.6309H124.028H124.028Z" fill="#4D4D4D"/>
<path fill-rule="evenodd" clip-rule="evenodd" d="M134.808 82.9384C136.091 82.9384 137.048 83.2385 137.681 83.8387C138.314 84.4389 138.631 85.2481 138.631 86.2663C138.631 86.9783 138.518 87.6634 138.293 88.3205C138.069 88.9796 137.719 89.5602 137.244 90.0662C136.769 90.5702 136.164 90.9727 135.427 91.2707C134.69 91.5688 133.809 91.7178 132.785 91.7178C132.435 91.7178 132.056 91.7012 131.648 91.6681C131.24 91.635 130.882 91.577 130.574 91.4943L132.585 83.137C132.935 83.0543 133.305 83.0005 133.697 82.9756C134.088 82.9508 134.459 82.9384 134.808 82.9384ZM134.708 83.9584C134.084 83.9584 133.709 83.9749 133.584 84.008L131.985 90.6392C132.052 90.6557 132.164 90.6702 132.322 90.6826C132.481 90.695 132.739 90.7012 133.097 90.7012C133.755 90.7012 134.348 90.5926 134.877 90.3732C135.406 90.1538 135.853 89.8475 136.22 89.4533C136.586 89.06 136.869 88.5933 137.069 88.0511C137.269 87.5088 137.369 86.9148 137.369 86.2691C137.369 85.5406 137.157 84.9735 136.732 84.5668C136.307 84.1622 135.633 83.9584 134.708 83.9584Z" fill="#4D4D4D"/>
<path fill-rule="evenodd" clip-rule="evenodd" d="M147.962 91.6309H146.75L147.712 87.6324H143.702L142.74 91.6309H141.529L143.602 83.0253H144.814L143.939 86.6265H147.95L148.825 83.0253H150.036L147.962 91.6309Z" fill="#4D4D4D"/>
<path fill-rule="evenodd" clip-rule="evenodd" d="M149.873 91.6309L151.946 83.0253H157.055L156.817 84.0312H152.907L152.283 86.6265H155.755L155.517 87.6075H152.057L151.321 90.6251H155.517L155.278 91.6309H149.873H149.873Z" fill="#4D4D4D"/>
<path fill-rule="evenodd" clip-rule="evenodd" d="M160.671 82.9384C161.596 82.9384 162.328 83.1246 162.87 83.4972C163.411 83.8697 163.681 84.4161 163.681 85.1353C163.681 85.8638 163.467 86.4754 163.038 86.968C162.61 87.4605 162.008 87.8144 161.233 88.0287C161.333 88.2035 161.45 88.425 161.583 88.694C161.716 88.9631 161.854 89.2611 161.995 89.5881C162.136 89.9141 162.274 90.2546 162.408 90.6054C162.541 90.9582 162.656 91.2987 162.757 91.6298H161.521C161.405 91.3152 161.283 90.9965 161.158 90.6737C161.035 90.3508 160.907 90.0403 160.779 89.7423C160.648 89.4443 160.52 89.1649 160.39 88.9041C160.262 88.6433 160.142 88.4126 160.034 88.2149C159.926 88.2232 159.818 88.2294 159.709 88.2335C159.601 88.2377 159.494 88.2398 159.385 88.2398H158.423L157.611 91.6298H156.399L158.449 83.136C158.799 83.0532 159.168 82.9994 159.561 82.9746C159.951 82.9508 160.322 82.9384 160.671 82.9384ZM160.521 83.9584C159.93 83.9584 159.572 83.9749 159.446 84.008L158.659 87.2625H159.397C159.739 87.2625 160.088 87.2377 160.446 87.188C160.805 87.1384 161.131 87.0411 161.426 86.8962C161.722 86.7513 161.963 86.5485 162.15 86.2877C162.338 86.027 162.433 85.6813 162.433 85.2508C162.433 84.7872 162.256 84.4561 161.902 84.2574C161.548 84.0577 161.087 83.9584 160.521 83.9584Z" fill="#4D4D4D"/>
<path fill-rule="evenodd" clip-rule="evenodd" d="M163.773 91.6309L165.847 83.0253H170.956L170.717 84.0312H166.808L166.183 86.6265H169.656L169.417 87.6075H165.957L165.221 90.6251H169.417L169.179 91.6309H163.773H163.773Z" fill="#4D4D4D"/>
<path fill-rule="evenodd" clip-rule="evenodd" d="M33.2869 76.8703C42.4818 76.8703 49.9357 69.4601 49.9357 60.3193C49.9357 51.1785 42.4818 43.7684 33.2869 43.7684C24.0921 43.7684 16.6382 51.1785 16.6382 60.3193C16.6382 69.4601 24.0921 76.8703 33.2869 76.8703ZM40.6277 57.9598C40.9588 55.7566 39.2714 54.5728 36.9647 53.7822L37.7131 50.7967L35.8863 50.3435L35.1576 53.2503C34.6777 53.1313 34.1843 53.0185 33.693 52.9078L34.4269 49.9823L32.6011 49.5291L31.8516 52.5135C31.454 52.4235 31.0636 52.3345 30.6847 52.2403L30.6868 52.231L28.1667 51.606L27.6806 53.5463C27.6806 53.5463 29.0359 53.8546 29.0078 53.8743C29.7479 54.0585 29.8821 54.5449 29.8592 54.9308L29.0067 58.3302C29.0577 58.3427 29.1233 58.3602 29.1972 58.3913C29.1358 58.3747 29.0713 58.3592 29.0036 58.3427L27.8086 63.107C27.718 63.3295 27.488 63.6647 26.9706 63.5375C26.9894 63.5633 25.6424 63.2084 25.6424 63.2084L24.7347 65.2884L27.1122 65.8772C27.5546 65.9869 27.9887 66.1028 28.4144 66.2114L27.6587 69.23L29.4835 69.6833L30.2329 66.6968C30.7316 66.8303 31.2156 66.9555 31.6892 67.0724L30.9429 70.0444L32.7697 70.4977L33.5265 67.4853C36.643 68.071 38.9862 67.8351 39.972 65.0328C40.7672 62.7758 39.9324 61.4751 38.2929 60.6265C39.4879 60.3533 40.3873 59.5731 40.6277 57.9598ZM36.4523 63.7807C35.8871 66.0366 32.0668 64.8165 30.8281 64.5102L31.8316 60.5117C33.0703 60.819 37.0425 61.4275 36.4523 63.7807ZM37.0175 57.9277C36.5022 59.9787 33.3222 58.9366 32.2906 58.6821L33.2004 55.054C34.232 55.3106 37.5536 55.7877 37.0175 57.9277Z" fill="#F7931A"/>
</svg>
