<svg width="193" height="133" viewBox="0 0 193 133" fill="none" xmlns="http://www.w3.org/2000/svg">
<rect x="1.72966" y="1.72966" width="189.541" height="129.541" rx="2.27034" fill="white" stroke="#F3F3F3" stroke-width="3.45932"/>
<path fill-rule="evenodd" clip-rule="evenodd" d="M92.8977 80.1931V65.1936V65.1907H101.018C104.366 65.1926 107.18 64.1414 109.459 62.0371C111.763 60.0399 113.051 57.1684 112.985 54.1753C113.031 51.1988 111.745 48.3486 109.459 46.3579C107.2 44.242 104.161 43.0875 101.018 43.1511H87.9827V80.1931H92.8977ZM92.8978 60.642V47.7114V47.7085H101.14C102.978 47.6585 104.748 48.3742 106.004 49.6739C107.266 50.8625 107.979 52.4952 107.979 54.2003C107.979 55.9055 107.266 57.5381 106.004 58.7268C104.733 59.9991 102.968 60.6944 101.14 60.642H92.8978Z" fill="#5F6368"/>
<path fill-rule="evenodd" clip-rule="evenodd" d="M132.914 56.8412C130.812 54.9615 127.944 54.0216 124.311 54.0216C119.645 54.0216 116.121 55.6767 113.739 58.987L118.068 61.6263C119.668 59.384 121.841 58.2629 124.586 58.2629C126.337 58.243 128.03 58.8625 129.33 59.9978C130.626 61.0351 131.372 62.5816 131.36 64.2094V65.2971C129.472 64.2626 127.068 63.7454 124.15 63.7454C120.73 63.7494 117.997 64.5257 115.95 66.0744C113.902 67.6231 112.879 69.7087 112.879 72.3313C112.834 74.7193 113.904 76.9995 115.791 78.538C117.733 80.1931 120.145 81.0206 123.029 81.0206C126.408 81.0206 129.115 79.5724 131.15 76.676H131.363V80.1931H136.065V64.573C136.067 61.2982 135.017 58.721 132.914 56.8412ZM119.582 75.5382C118.553 74.8197 117.946 73.6636 117.952 72.4348C117.952 71.0546 118.621 69.9049 119.967 68.9591C121.3 68.0271 122.965 67.5611 124.962 67.5611C127.703 67.5611 129.84 68.1522 131.372 69.3345C131.372 71.3324 130.558 73.0732 128.93 74.5569C127.464 75.9769 125.476 76.7761 123.402 76.7795C122.019 76.8046 120.669 76.366 119.582 75.5382Z" fill="#5F6368"/>
<path fill-rule="evenodd" clip-rule="evenodd" d="M163.052 54.8492L146.64 91.3651H141.566L147.656 78.5883L136.865 54.8492H142.207L150.007 73.0555H150.114L157.7 54.8492H163.052Z" fill="#5F6368"/>
<path fill-rule="evenodd" clip-rule="evenodd" d="M73.0359 61.9602C73.0378 60.5101 72.9111 59.0625 72.6574 57.6333H51.9286V65.8291H63.8011C63.3102 68.4741 61.7243 70.8102 59.4111 72.2958V77.6158H66.4968C70.6456 73.9125 73.0359 68.4358 73.0359 61.9602Z" fill="#4285F4"/>
<path fill-rule="evenodd" clip-rule="evenodd" d="M51.9285 82.7556C57.8602 82.7556 62.8546 80.8699 66.4966 77.6188L59.411 72.2988C57.4389 73.5934 54.8989 74.3322 51.9285 74.3322C46.1953 74.3322 41.3291 70.5905 39.589 65.5483H32.2897V71.0309C36.0207 78.2187 43.6194 82.7552 51.9285 82.7556Z" fill="#34A853"/>
<path fill-rule="evenodd" clip-rule="evenodd" d="M39.5892 65.5483C38.6692 62.9062 38.6692 60.045 39.5892 57.4028V51.9203H32.2899C29.1692 57.9322 29.1692 65.0189 32.2899 71.0309L39.5892 65.5483Z" fill="#FBBC04"/>
<path fill-rule="evenodd" clip-rule="evenodd" d="M51.9285 48.619C55.0631 48.5694 58.092 49.716 60.3605 51.811L66.634 45.7373C62.6559 42.12 57.3858 40.134 51.9285 40.1957C43.6194 40.196 36.0207 44.7326 32.2897 51.9204L39.589 57.4029C41.3291 52.3607 46.1953 48.619 51.9285 48.619Z" fill="#EA4335"/>
</svg>
