<svg width="193" height="133" viewBox="0 0 193 133" fill="none" xmlns="http://www.w3.org/2000/svg">
<rect x="0.5" y="0.5" width="192" height="132" rx="3.5" fill="white" stroke="#F3F3F3"/>
<path d="M114.17 96.3469H79.7257V34.9531H114.17V96.3469Z" fill="#6C6BBD"/>
<path d="M81.9328 65.645C81.9328 53.191 87.8122 42.0974 96.9679 34.9482C90.2726 29.7203 81.8227 26.6 72.6395 26.6C50.8991 26.6 33.276 44.0808 33.276 65.645C33.276 87.2093 50.8991 104.69 72.6395 104.69C81.8227 104.69 90.2726 101.57 96.9679 96.3419C87.8122 89.1927 81.9328 78.099 81.9328 65.645Z" fill="#EB001B"/>
<path d="M160.625 65.645C160.625 87.2093 143.002 104.69 121.261 104.69C112.078 104.69 103.628 101.57 96.9305 96.3419C106.089 89.1927 111.968 78.099 111.968 65.645C111.968 53.191 106.089 42.0974 96.9305 34.9482C103.628 29.7203 112.078 26.6 121.261 26.6C143.002 26.6 160.625 44.0808 160.625 65.645Z" fill="#0099DF"/>
</svg>
