<svg width="193" height="133" viewBox="0 0 193 133" fill="none" xmlns="http://www.w3.org/2000/svg">
<rect x="1.72966" y="1.72966" width="189.541" height="129.541" rx="2.27034" fill="white" stroke="#F3F3F3" stroke-width="3.45932"/>
<path d="M114.17 96.347H79.726V34.9532H114.17V96.347Z" fill="#FF5F00"/>
<path d="M81.9326 65.645C81.9326 53.191 87.812 42.0974 96.9676 34.9482C90.2723 29.7203 81.8225 26.6 72.6392 26.6C50.8988 26.6 33.2758 44.0808 33.2758 65.645C33.2758 87.2093 50.8988 104.69 72.6392 104.69C81.8225 104.69 90.2723 101.57 96.9676 96.3419C87.812 89.1927 81.9326 78.099 81.9326 65.645Z" fill="#EB001B"/>
<path d="M160.625 65.645C160.625 87.2093 143.002 104.69 121.261 104.69C112.078 104.69 103.628 101.57 96.9304 96.3419C106.089 89.1927 111.968 78.099 111.968 65.645C111.968 53.191 106.089 42.0974 96.9304 34.9482C103.628 29.7203 112.078 26.6 121.261 26.6C143.002 26.6 160.625 44.0808 160.625 65.645Z" fill="#F79E1B"/>
</svg>
