<svg width="193" height="133" viewBox="0 0 193 133" fill="none" xmlns="http://www.w3.org/2000/svg">
<rect x="0.810146" y="0.810146" width="191.38" height="131.38" rx="5.67102" fill="white" stroke="#F3F3F3" stroke-width="1.62029"/>
<path fill-rule="evenodd" clip-rule="evenodd" d="M102.009 47.5497L92.7283 49.5846V41.8972L102.009 39.9V47.5497ZM121.309 51.8079C117.685 51.8079 115.356 53.5413 114.062 54.7472L113.581 52.4108H105.447V96.3496L114.69 94.3524L114.727 83.688C116.058 84.6678 118.018 86.0621 121.272 86.0621C127.89 86.0621 133.916 80.6357 133.916 68.69C133.88 57.7619 127.779 51.8079 121.309 51.8079ZM119.09 77.7717C116.908 77.7717 115.614 76.9804 114.727 76.0006L114.69 62.0201C115.651 60.9273 116.982 60.1736 119.09 60.1736C122.454 60.1736 124.784 64.0173 124.784 68.9538C124.784 74.0034 122.491 77.7717 119.09 77.7717ZM163.051 69.0669C163.051 59.4199 158.467 51.8079 149.704 51.8079C140.905 51.8079 135.58 59.4199 135.58 68.9915C135.58 80.3342 141.866 86.0621 150.887 86.0621C155.287 86.0621 158.615 85.0446 161.129 83.6126V76.076C158.615 77.3572 155.731 78.1486 152.07 78.1486C148.484 78.1486 145.304 76.8673 144.898 72.4207H162.978C162.978 72.213 162.991 71.7412 163.006 71.1976L163.006 71.1964L163.006 71.1955C163.027 70.4573 163.051 69.5874 163.051 69.0669ZM144.787 65.487C144.787 61.2287 147.338 59.4576 149.667 59.4576C151.922 59.4576 154.326 61.2287 154.326 65.487H144.787ZM92.7283 52.4486H102.009V85.4215H92.7283V52.4486ZM82.1912 52.4485L82.7828 55.2371C84.9642 51.1673 89.2901 51.9963 90.4732 52.4485V61.1157C89.327 60.7012 85.6297 60.1736 83.4483 63.0752V85.4214H74.205V52.4485H82.1912ZM64.296 44.2712L55.2745 46.2308L55.2376 76.4151C55.2376 81.9923 59.3416 86.0997 64.8136 86.0997C67.8454 86.0997 70.0638 85.5345 71.2839 84.8562V77.2065C70.1008 77.6964 64.259 79.4298 64.259 73.8526V60.4751H71.2839V52.4485H64.259L64.296 44.2712ZM42.4452 59.9852C40.4857 59.9852 39.3025 60.5504 39.3025 62.0201C39.3025 63.6247 41.3387 64.3306 43.8649 65.2063C47.9831 66.6339 53.4034 68.5129 53.4263 75.473C53.4263 82.2184 48.1391 86.0998 40.4487 86.0998C37.269 86.0998 33.7935 85.4591 30.355 83.9518V74.9832C33.4608 76.7166 37.3799 77.9978 40.4487 77.9978C42.5192 77.9978 43.9981 77.4326 43.9981 75.6992C43.9981 73.9217 41.7908 73.1093 39.126 72.1285C35.0677 70.6348 29.9483 68.7505 29.9483 62.4723C29.9483 55.8023 34.9397 51.8079 42.4452 51.8079C45.514 51.8079 48.5458 52.2978 51.6146 53.5413V62.3969C48.8046 60.8519 45.2552 59.9852 42.4452 59.9852Z" fill="#6772E5"/>
</svg>
