<svg width="193" height="133" viewBox="0 0 193 133" fill="none" xmlns="http://www.w3.org/2000/svg">
<rect x="1.72966" y="1.72966" width="189.541" height="129.541" rx="2.27034" fill="white" stroke="#F3F3F3" stroke-width="3.45932"/>
<path d="M85.6911 91.2156H72.8417L80.8786 44.6632H93.7274L85.6911 91.2156Z" fill="#15195A"/>
<path d="M132.271 45.8013C129.737 44.8594 125.717 43.8194 120.746 43.8194C108.057 43.8194 99.1213 50.1581 99.0665 59.2206C98.9611 65.9068 105.464 69.6205 110.328 71.8499C115.299 74.128 116.989 75.615 116.989 77.6456C116.938 80.7643 112.972 82.2018 109.273 82.2018C104.142 82.2018 101.394 81.4607 97.2164 79.7256L95.5244 78.9818L93.7263 89.4318C96.74 90.718 102.292 91.8593 108.057 91.9094C121.539 91.9094 130.317 85.6687 130.421 76.0112C130.472 70.7119 127.038 66.6513 119.635 63.3332C115.141 61.2031 112.389 59.7669 112.389 57.5875C112.441 55.6062 114.717 53.5769 119.79 53.5769C123.967 53.4775 127.036 54.4181 129.361 55.3594L130.524 55.8537L132.271 45.8013Z" fill="#15195A"/>
<path fill-rule="evenodd" clip-rule="evenodd" d="M155.271 44.6632H165.21L175.577 91.2149H163.679C163.679 91.2149 162.515 85.8662 162.146 84.2318H145.648C145.171 85.4693 142.952 91.2149 142.952 91.2149H129.469L148.555 48.5257C149.878 45.5045 152.206 44.6632 155.271 44.6632ZM154.479 61.6989C154.479 61.6989 150.407 72.0495 149.349 74.7238H160.03C159.501 72.3963 157.068 61.2532 157.068 61.2532L156.17 57.242C155.792 58.2749 155.245 59.695 154.876 60.6528C154.626 61.3021 154.458 61.739 154.479 61.6989Z" fill="#15195A"/>
<path fill-rule="evenodd" clip-rule="evenodd" d="M49.5254 76.4075L62.1092 44.6632H75.6964L55.4993 91.1662H41.9114L30.4587 50.7163C26.5072 48.5522 21.9975 46.8117 16.9553 45.6039L17.1668 44.6633H37.8403C40.6425 44.7613 42.9163 45.6032 43.6562 48.5764L48.1492 69.966C48.1495 69.9671 48.1499 69.9682 48.1503 69.9694L49.5254 76.4075Z" fill="#15195A"/>
</svg>
